<?xml version="1.0" standalone="no"?>
<!DOCTYPE svg PUBLIC "-//W3C//DTD SVG 20010904//EN"
 "http://www.w3.org/TR/2001/REC-SVG-20010904/DTD/svg10.dtd">
<svg version="1.0" xmlns="http://www.w3.org/2000/svg"
 width="2753.000000pt" height="2753.000000pt" viewBox="0 0 2753.000000 2753.000000"
 preserveAspectRatio="xMidYMid meet">
<metadata>
Created by potrace 1.14, written by Peter Selinger 2001-2017
</metadata>
<g transform="translate(0.000000,2753.000000) scale(0.100000,-0.100000)"
fill="#000000" stroke="none">
<path d="M4430 26281 l0 -1249 -27 -3 c-16 -2 -477 -4 -1026 -3 l-998 0 1 -30
c1 -17 2 -57 1 -88 l-1 -58 -1190 0 -1190 0 0 -370 0 -370 1190 0 1190 0 1
-22 c0 -13 0 -58 0 -100 l-2 -78 758 -1 c417 -1 763 0 768 1 6 2 21 2 35 1 14
-1 76 -3 139 -4 l114 -2 -1 -7480 c0 -4114 -1 -7489 -1 -7500 -1 -20 -7 -20
-903 -20 l-903 0 -3 -88 -3 -87 -1189 0 -1190 0 0 -370 0 -370 1190 0 1190 0
0 -100 c0 -88 2 -100 18 -101 9 0 465 -2 1012 -3 547 -2 1001 -3 1008 -4 9 -2
12 -293 12 -1417 l0 -1415 -2215 0 -2215 0 0 -370 0 -370 2215 0 2215 0 0
-2105 0 -2105 370 0 370 0 0 2105 0 2105 2210 0 c2203 0 2210 0 2211 -20 2
-32 4 -38 10 -45 4 -3 3 -22 -1 -41 -4 -19 -4 -36 0 -39 5 -3 6 -14 3 -24 -7
-28 8 -32 104 -32 48 0 97 -2 110 -5 l23 -6 0 -1999 0 -1999 370 0 370 0 0
1999 0 1999 23 5 c29 8 6488 8 6516 0 l21 -5 0 -1999 0 -1999 370 0 370 0 0
1999 0 1999 23 5 c12 4 341 6 730 6 390 0 711 1 712 3 2 2 5 47 6 101 l2 97
4088 0 4089 0 0 370 0 370 -4090 0 c-2250 0 -4089 3 -4089 8 7 43 -3 2492 -10
2487 -5 -3 -12 -2 -15 3 -6 9 -59 8 -75 -3 -6 -3 -11 -3 -11 2 0 7 -76 9 -105
3 -5 -1 -14 -1 -20 0 -22 4 -155 1 -164 -4 -5 -4 -12 -2 -15 3 -4 6 -18 6 -36
1 -16 -5 -32 -5 -34 -1 -6 9 -48 7 -64 -3 -7 -4 -12 -3 -12 1 0 10 -82 9 -98
-1 -6 -3 -13 -2 -17 4 -4 6 -11 7 -18 3 -13 -8 -57 -11 -62 -3 -2 3 -29 4 -62
2 -32 -1 -64 -3 -70 -2 -7 0 -19 0 -25 0 -7 1 -30 -1 -50 -2 -21 -2 -38 -1
-38 2 0 3 -13 5 -30 5 -16 0 -30 -3 -30 -7 0 -4 -11 -3 -25 2 -14 5 -26 6 -26
2 -1 -4 -3 -525 -4 -1159 0 -634 -4 -1155 -7 -1159 -10 -9 -159 -10 -165 -1
-2 4 -10 4 -16 0 -10 -6 -85 -8 -104 -3 -17 5 -29 7 -45 8 -17 2 -18 77 -18
1427 l0 1425 4825 0 4825 0 0 370 0 370 -2912 2 -2911 3 114 66 c413 238 807
527 1156 848 64 58 131 118 149 134 60 51 347 360 486 523 279 330 586 750
752 1031 47 78 170 291 205 353 51 90 220 427 268 535 242 538 460 1181 563
1660 11 55 28 129 36 165 61 260 141 776 174 1115 11 116 25 260 32 320 18
152 18 1644 0 1795 -6 58 -19 182 -27 275 -18 203 -61 552 -75 615 -6 25 -24
128 -41 230 -16 102 -36 212 -44 245 -8 33 -32 141 -54 240 -45 202 -116 471
-162 615 -56 173 -141 424 -175 511 -18 47 -43 115 -55 150 -12 35 -25 69 -29
74 -5 6 -23 46 -40 90 -17 44 -40 98 -50 120 -118 258 -144 313 -269 550 -58
110 -109 202 -113 203 -4 2 -8 8 -8 12 0 17 -179 310 -303 495 -451 674 -1062
1326 -1664 1776 -288 215 -650 445 -918 582 -38 20 -75 40 -82 44 -6 4 1341 7
2993 5 l3004 -2 0 370 0 370 -4825 0 -4825 0 0 1340 0 1340 -370 0 -370 0 0
-1340 0 -1340 -2717 3 c-1495 1 -2728 5 -2740 9 -21 6 -100 20 -135 24 -10 1
-19 2 -20 3 -2 1 -19 4 -38 7 -48 6 -110 14 -140 19 -14 2 -45 6 -69 9 -24 3
-60 8 -80 11 -51 7 -105 13 -186 21 -96 9 -121 11 -190 19 -33 3 -87 8 -120 9
-33 2 -76 7 -95 11 l-35 6 3 1265 2 1264 -370 0 -370 0 0 -1249 0 -1249 -22
-4 c-18 -3 -4516 -2 -4620 1 l-28 1 0 1250 0 1250 -370 0 -370 0 0 -1249z
m11186 -2171 l1524 0 0 -1537 0 -1536 -21 24 c-11 13 -28 39 -37 59 -9 19 -18
37 -21 40 -6 5 -32 52 -70 124 -9 17 -19 35 -24 40 -18 26 -54 84 -72 119 -11
20 -23 37 -27 37 -5 0 -8 5 -8 12 0 6 -11 26 -26 45 -14 18 -21 33 -17 33 4 0
0 5 -9 11 -10 5 -18 14 -18 19 0 8 -32 57 -124 190 -17 25 -34 47 -38 48 -5 2
-8 8 -8 12 0 7 -97 143 -143 200 -7 9 -25 33 -41 55 -17 22 -32 42 -36 45 -3
3 -18 23 -35 45 -16 22 -34 45 -40 51 -27 30 -55 65 -55 70 0 2 -10 15 -22 27
-13 13 -39 42 -58 66 -19 23 -44 53 -55 65 -11 13 -51 58 -90 102 -72 81 -443
456 -505 509 -19 17 -69 59 -110 95 -41 36 -80 70 -87 75 -7 6 -20 17 -30 25
-24 21 -123 100 -163 130 -18 14 -41 32 -50 40 -10 8 -28 22 -40 30 -12 8 -28
21 -36 28 -7 6 -15 12 -19 12 -3 0 -11 5 -18 10 -39 34 -147 110 -156 110 -6
0 -11 5 -11 10 0 6 -7 10 -15 10 -8 0 -15 4 -15 8 0 5 -12 15 -27 23 -16 8
-37 22 -47 32 -11 9 -24 17 -30 17 -5 0 -17 6 -25 14 -16 14 -209 132 -291
178 -25 14 -61 34 -80 45 -128 73 -188 102 -193 96 -4 -3 -7 1 -7 10 0 9 -8
21 -17 27 -17 11 -17 11 0 6 10 -3 705 -6 1543 -6z m-5806 -213 c0 -5 7 -7 15
-3 13 5 15 -313 15 -2823 0 -2686 -1 -2829 -17 -2833 -10 -2 -471 -4 -1026 -4
-1000 1 -1007 1 -1008 -19 0 -11 -1 -262 -2 -558 -2 -471 0 -537 13 -538 8 -1
416 -2 905 -2 841 -2 890 -3 889 -19 -1 -10 2 -18 6 -18 5 0 5 -13 0 -30 -5
-19 -5 -30 1 -30 7 0 7 -6 0 -17 -6 -11 -6 -24 0 -35 6 -12 6 -18 0 -18 -7 0
-7 -9 -1 -25 6 -16 6 -25 0 -25 -6 0 -6 -9 0 -25 5 -14 6 -25 2 -25 -4 0 -7
-16 -7 -35 0 -19 4 -35 8 -35 4 0 4 -8 -2 -17 -6 -11 -6 -24 0 -35 6 -10 5
-19 -1 -23 -6 -4 -7 -13 -1 -23 5 -9 10 -19 12 -22 1 -3 -3 -15 -10 -27 -8
-16 -8 -23 -1 -23 8 0 8 -6 0 -20 -8 -14 -8 -20 0 -20 8 0 8 -6 0 -20 -8 -14
-8 -20 0 -20 8 0 8 -6 0 -20 -8 -14 -8 -20 0 -20 8 0 8 -6 0 -20 -8 -14 -8
-20 0 -20 8 0 8 -6 0 -20 -8 -14 -8 -20 0 -20 8 0 8 -6 0 -20 -8 -14 -8 -20 0
-20 8 0 8 -6 0 -20 -8 -14 -8 -20 0 -20 8 0 8 -6 0 -20 -8 -14 -8 -20 0 -20 8
0 8 -6 0 -20 -8 -14 -8 -20 0 -20 8 0 8 -6 0 -20 -8 -14 -8 -20 0 -20 8 0 8
-6 0 -20 -8 -14 -8 -20 0 -20 8 0 8 -6 0 -20 -8 -14 -8 -20 0 -20 8 0 8 -6 0
-20 -8 -14 -8 -20 0 -20 8 0 8 -6 0 -20 -8 -14 -8 -20 0 -20 6 0 8 -5 5 -11
-9 -13 -12 -79 -5 -79 7 0 3 -77 -5 -90 -3 -6 -1 -10 5 -10 8 0 8 -6 0 -20 -7
-13 -7 -20 -1 -20 7 0 7 -9 1 -25 -6 -15 -6 -26 0 -30 7 -4 6 -13 0 -25 -6
-10 -7 -21 -2 -24 8 -5 7 -80 -2 -103 -3 -7 -1 -13 5 -13 7 0 7 -6 0 -17 -6
-11 -6 -24 0 -35 6 -10 5 -19 -1 -23 -7 -4 -7 -12 0 -25 7 -13 7 -21 0 -25 -7
-4 -7 -12 0 -25 7 -13 7 -21 0 -25 -8 -5 -8 -11 0 -20 7 -9 8 -15 1 -19 -7 -5
-7 -15 -1 -31 6 -15 6 -25 0 -25 -5 0 -5 -12 0 -30 5 -17 5 -30 0 -30 -6 0 -6
-10 -1 -22 5 -13 5 -33 0 -45 -5 -14 -5 -23 1 -23 6 0 6 -9 0 -25 -6 -15 -6
-26 0 -30 6 -4 7 -13 1 -24 -5 -9 -6 -23 -1 -31 4 -7 4 -24 -1 -37 -5 -14 -5
-23 1 -23 6 0 6 -9 0 -25 -6 -16 -6 -25 1 -25 6 0 6 -7 -1 -20 -7 -13 -7 -20
-1 -20 7 0 7 -9 1 -25 -6 -15 -6 -26 1 -30 6 -4 6 -13 0 -23 -6 -10 -6 -23 0
-34 6 -10 5 -19 -1 -23 -7 -4 -6 -14 2 -28 6 -12 10 -24 9 -27 -2 -3 -7 -13
-12 -22 -7 -12 -6 -18 1 -18 8 0 8 -6 0 -20 -8 -14 -8 -20 0 -20 8 0 8 -6 0
-20 -8 -14 -8 -20 0 -20 8 0 8 -6 0 -20 -8 -14 -8 -20 0 -20 8 0 8 -6 0 -20
-8 -14 -8 -20 0 -20 8 0 8 -6 0 -20 -8 -14 -8 -20 0 -20 8 0 8 -6 0 -20 -8
-14 -8 -20 0 -20 8 0 8 -6 0 -20 -8 -14 -8 -20 0 -20 8 0 8 -6 0 -20 -8 -14
-8 -20 0 -20 8 0 8 -6 0 -20 -8 -14 -8 -20 0 -20 8 0 8 -6 0 -20 -8 -14 -8
-20 0 -20 8 0 8 -6 0 -20 -8 -14 -8 -20 0 -20 8 0 8 -6 0 -20 -8 -14 -8 -20 0
-20 8 0 8 -6 0 -20 -8 -14 -8 -20 0 -20 8 0 8 -6 0 -20 -8 -14 -8 -20 0 -20 6
0 8 -5 4 -11 -10 -17 -11 -52 -2 -71 5 -10 4 -19 -2 -23 -7 -4 -7 -12 0 -25 7
-13 7 -21 0 -25 -7 -4 -7 -12 -1 -23 6 -10 6 -23 0 -34 -7 -12 -6 -18 1 -18 7
0 8 -6 1 -17 -6 -11 -6 -24 0 -35 6 -10 5 -19 -1 -23 -7 -4 -7 -13 0 -26 7
-12 7 -19 1 -19 -7 0 -7 -9 -1 -25 6 -15 6 -25 0 -25 -5 0 -5 -12 0 -30 5 -16
6 -30 2 -30 -4 0 -7 -11 -7 -25 0 -14 4 -25 8 -25 4 0 3 -9 -3 -19 -7 -13 -7
-22 0 -26 7 -4 7 -12 0 -25 -7 -13 -7 -21 0 -25 7 -4 7 -13 0 -26 -7 -12 -7
-19 -1 -19 6 0 6 -11 1 -30 -5 -19 -5 -30 1 -30 7 0 7 -6 0 -17 -6 -11 -6 -24
0 -35 6 -10 5 -19 -1 -23 -7 -4 -7 -13 0 -26 7 -12 7 -19 1 -19 -7 0 -7 -9 -1
-25 6 -15 6 -25 0 -25 -5 0 -5 -12 0 -30 5 -16 6 -30 2 -30 -4 0 -7 -11 -7
-25 0 -14 4 -25 8 -25 4 0 3 -9 -3 -19 -7 -13 -7 -22 0 -26 7 -4 7 -12 0 -25
-7 -13 -7 -21 0 -25 7 -4 7 -13 0 -26 -7 -12 -7 -19 -1 -19 6 0 6 -11 1 -30
-5 -19 -5 -30 1 -30 7 0 7 -6 0 -17 -6 -11 -6 -24 0 -35 6 -10 5 -19 -1 -23
-6 -4 -7 -13 -1 -23 11 -21 11 -33 0 -54 -7 -12 -6 -18 1 -18 8 0 8 -6 0 -20
-8 -14 -8 -20 0 -20 8 0 8 -6 0 -20 -8 -14 -8 -20 0 -20 8 0 8 -6 0 -20 -8
-14 -8 -20 0 -20 8 0 8 -6 0 -20 -8 -14 -8 -20 0 -20 8 0 8 -6 0 -20 -8 -14
-8 -20 0 -20 8 0 8 -6 0 -20 -8 -14 -8 -20 0 -20 8 0 8 -6 0 -20 -8 -14 -8
-20 0 -20 8 0 8 -6 0 -20 -8 -14 -8 -20 0 -20 8 0 8 -6 0 -20 -8 -14 -8 -20 0
-20 8 0 8 -6 0 -20 -8 -14 -8 -20 0 -20 8 0 8 -6 0 -20 -8 -14 -8 -20 0 -20 8
0 8 -6 0 -20 -8 -14 -8 -20 0 -20 8 0 8 -6 0 -20 -8 -14 -8 -20 0 -20 8 0 8
-6 0 -20 -8 -14 -8 -20 0 -20 6 0 8 -5 5 -11 -9 -13 -12 -79 -5 -79 7 0 3 -77
-5 -90 -3 -6 -1 -10 5 -10 8 0 8 -6 0 -20 -7 -13 -7 -20 -1 -20 7 0 7 -9 1
-25 -6 -15 -6 -26 0 -30 7 -4 6 -13 0 -25 -6 -10 -7 -21 -2 -24 8 -5 7 -80 -2
-103 -3 -7 -1 -13 5 -13 7 0 7 -6 0 -17 -6 -11 -6 -24 0 -35 6 -10 5 -19 -1
-23 -7 -4 -7 -12 0 -25 7 -13 7 -21 0 -25 -7 -4 -7 -12 0 -25 7 -13 7 -21 0
-25 -8 -5 -8 -11 0 -20 7 -9 8 -15 1 -19 -7 -5 -7 -15 -1 -31 6 -15 6 -25 0
-25 -5 0 -5 -12 0 -30 5 -18 5 -30 0 -30 -6 0 -6 -9 -1 -22 5 -13 5 -33 0 -45
-5 -14 -5 -23 1 -23 6 0 6 -9 0 -25 -6 -15 -6 -26 0 -30 6 -4 7 -13 1 -24 -5
-9 -6 -23 -1 -31 4 -7 4 -24 -1 -37 -5 -14 -5 -23 1 -23 6 0 6 -9 0 -25 -6
-16 -6 -25 1 -25 6 0 6 -7 -1 -20 -7 -13 -7 -20 -1 -20 7 0 7 -9 1 -25 -6 -15
-6 -26 1 -30 6 -4 6 -13 0 -23 -6 -10 -6 -23 0 -34 6 -10 5 -19 -1 -23 -7 -4
-6 -14 2 -28 6 -12 10 -24 9 -27 -2 -3 -7 -13 -12 -22 -7 -12 -6 -18 1 -18 8
0 8 -6 0 -20 -8 -14 -8 -20 0 -20 8 0 8 -6 0 -20 -8 -14 -8 -20 0 -20 8 0 8
-6 0 -20 -8 -14 -8 -20 0 -20 8 0 8 -6 0 -20 -8 -14 -8 -20 0 -20 8 0 8 -6 0
-20 -8 -14 -8 -20 0 -20 8 0 8 -6 0 -20 -8 -14 -8 -20 0 -20 8 0 8 -6 0 -20
-8 -14 -8 -20 0 -20 8 0 8 -6 0 -20 -8 -14 -8 -20 0 -20 8 0 8 -6 0 -20 -8
-14 -8 -20 0 -20 8 0 8 -6 0 -20 -8 -14 -8 -20 0 -20 8 0 8 -6 0 -20 -8 -14
-8 -20 0 -20 8 0 8 -6 0 -20 -8 -14 -8 -20 0 -20 8 0 8 -6 0 -20 -8 -14 -8
-20 0 -20 8 0 8 -6 0 -20 -8 -14 -8 -20 0 -20 6 0 8 -5 4 -11 -10 -17 -11 -52
-2 -71 5 -10 4 -19 -2 -23 -7 -4 -7 -12 0 -25 7 -13 7 -21 0 -25 -7 -4 -7 -12
-1 -23 6 -10 6 -23 0 -34 -7 -12 -6 -18 1 -18 7 0 8 -6 1 -17 -6 -11 -6 -24 0
-35 6 -10 5 -19 -1 -23 -7 -4 -7 -13 0 -26 7 -12 7 -19 1 -19 -7 0 -7 -9 -1
-25 6 -15 6 -25 0 -25 -5 0 -5 -12 0 -30 5 -16 6 -30 2 -30 -4 0 -7 -11 -7
-25 0 -14 4 -25 8 -25 4 0 3 -9 -3 -19 -7 -13 -7 -22 0 -26 7 -4 7 -12 0 -25
-7 -13 -7 -21 0 -25 7 -4 7 -13 0 -26 -6 -10 -7 -19 -3 -19 9 0 8 -84 -1 -106
-3 -8 -1 -14 5 -14 6 0 6 -7 -1 -19 -7 -13 -7 -22 0 -26 7 -4 7 -12 0 -25 -7
-13 -7 -21 0 -25 7 -4 7 -12 1 -23 -6 -10 -6 -23 0 -34 6 -10 5 -19 -1 -23 -6
-4 -6 -15 0 -30 6 -17 6 -25 -1 -25 -6 0 -7 -4 -4 -10 9 -15 12 -89 3 -84 -4
3 -4 -6 2 -20 5 -14 6 -26 2 -26 -4 0 -7 -84 -6 -186 0 -102 -1 -197 -4 -210
l-4 -24 -1073 0 -1073 0 -6 23 c-3 12 -6 51 -6 87 l0 65 -1010 0 c-895 0
-1010 1 -1011 15 -1 20 -1 14939 0 14966 l1 21 2200 0 c1371 0 2200 -4 2200
-10z m885 -41 c33 -3 71 -8 85 -10 14 -3 50 -8 80 -11 30 -3 84 -10 120 -15
36 -6 88 -13 115 -16 28 -4 52 -9 55 -13 3 -3 16 -6 30 -7 14 -1 43 -4 65 -8
22 -4 51 -9 65 -11 14 -2 36 -7 50 -10 14 -4 34 -8 45 -10 11 -2 43 -9 70 -15
28 -6 61 -14 75 -16 14 -3 33 -7 42 -10 9 -3 25 -7 35 -9 10 -2 43 -11 75 -19
31 -8 67 -17 80 -20 12 -2 35 -9 49 -14 15 -6 30 -8 33 -5 3 4 6 1 6 -6 0 -7
5 -9 11 -6 6 4 29 0 52 -8 23 -8 89 -29 147 -47 58 -17 114 -35 125 -40 29
-12 119 -40 125 -38 3 0 23 -8 45 -19 22 -12 42 -21 45 -21 3 0 18 -5 33 -11
16 -6 31 -11 34 -11 3 0 21 -7 41 -16 21 -9 46 -20 57 -24 72 -28 119 -48 185
-78 41 -19 81 -35 88 -35 6 0 12 -3 12 -7 0 -4 18 -13 40 -20 22 -7 40 -17 40
-22 0 -4 3 -7 8 -6 12 3 388 -190 422 -217 8 -7 39 -25 68 -40 28 -16 52 -32
52 -37 0 -5 4 -7 9 -4 4 3 21 -5 37 -19 15 -13 31 -22 35 -19 4 2 9 1 11 -3 4
-11 85 -63 97 -63 5 0 12 -7 15 -16 3 -8 10 -13 15 -10 5 4 11 2 13 -2 1 -5
45 -38 97 -73 132 -90 127 -87 221 -158 47 -36 87 -68 88 -73 2 -4 10 -8 17
-8 7 0 15 -3 17 -7 2 -5 28 -28 58 -53 30 -25 60 -49 66 -55 7 -5 29 -24 50
-42 22 -17 55 -45 74 -63 19 -17 66 -59 104 -93 76 -67 448 -437 440 -437 -3
0 8 -12 23 -28 25 -24 96 -104 163 -182 12 -14 30 -35 41 -48 34 -40 213 -268
229 -291 8 -13 27 -37 42 -55 15 -17 28 -36 28 -43 0 -6 3 -13 8 -15 11 -5
112 -147 112 -158 0 -6 4 -10 9 -10 5 0 16 -15 25 -34 8 -18 22 -39 31 -46 8
-7 15 -18 15 -25 0 -8 4 -15 8 -17 4 -1 17 -19 28 -38 12 -19 45 -73 74 -120
29 -47 71 -119 93 -160 22 -41 43 -77 47 -80 3 -3 26 -45 51 -95 24 -49 47
-92 50 -95 6 -5 22 -41 23 -52 1 -4 7 -13 14 -19 6 -7 12 -16 12 -20 0 -3 25
-59 55 -123 49 -103 164 -370 180 -416 1 -3 6 -16 12 -30 6 -14 29 -77 52
-140 23 -63 45 -122 48 -130 3 -8 7 -20 8 -25 2 -6 13 -42 25 -80 22 -67 25
-77 30 -100 1 -5 6 -16 12 -22 6 -7 7 -13 3 -13 -4 0 -2 -7 5 -15 7 -9 10 -18
7 -22 -3 -3 1 -19 9 -35 9 -16 13 -36 10 -43 -2 -7 2 -22 10 -33 8 -11 16 -33
18 -49 3 -15 11 -52 19 -80 9 -29 13 -53 11 -53 -3 0 0 -9 6 -21 7 -11 14 -33
16 -47 3 -15 12 -54 21 -87 8 -33 17 -69 18 -80 1 -11 4 -22 5 -25 1 -3 3 -9
4 -15 1 -5 5 -21 9 -35 3 -14 9 -38 11 -55 3 -16 8 -43 12 -60 3 -16 8 -41 9
-55 2 -14 4 -27 6 -30 1 -3 3 -9 4 -15 1 -5 7 -36 14 -68 7 -31 11 -63 8 -70
-2 -6 0 -21 6 -32 6 -11 12 -37 14 -59 2 -22 5 -51 8 -65 6 -33 17 -108 20
-141 2 -14 4 -25 5 -25 2 0 7 -46 11 -102 2 -24 5 -43 8 -43 5 0 11 -67 15
-177 0 -24 3 -43 6 -43 3 0 6 -17 6 -37 1 -21 4 -69 8 -108 5 -69 18 -260 20
-320 1 -16 5 -36 9 -42 5 -8 4 -13 -2 -13 -5 0 -9 -9 -8 -20 1 -11 4 -20 7
-20 5 0 5 -723 0 -745 -5 -23 -5 -51 2 -71 4 -12 4 -25 1 -28 -4 -3 -8 -38 -9
-76 -1 -38 -5 -105 -8 -147 -4 -43 -9 -121 -12 -173 -3 -52 -9 -99 -14 -105
-4 -5 -4 -19 0 -30 4 -11 4 -29 1 -40 -4 -11 -6 -30 -5 -42 0 -13 -4 -23 -10
-23 -6 0 -4 -5 4 -10 8 -5 10 -10 4 -10 -6 0 -11 -15 -11 -32 0 -18 -3 -60 -7
-93 -5 -33 -10 -73 -11 -90 -2 -16 -6 -41 -9 -55 -3 -14 -7 -47 -10 -75 -3
-27 -5 -50 -6 -50 -2 0 -11 -66 -13 -92 0 -13 -3 -23 -6 -23 -4 0 -7 -17 -9
-37 -1 -20 -5 -48 -8 -62 -9 -43 -14 -75 -18 -101 -2 -14 -5 -25 -6 -25 -1 0
-3 -11 -5 -25 -2 -14 -6 -37 -9 -52 -3 -16 -9 -40 -12 -55 -3 -16 -7 -37 -8
-48 -1 -12 -5 -25 -8 -30 -3 -6 -9 -28 -12 -50 -4 -22 -9 -48 -12 -57 -3 -9
-7 -25 -9 -35 -2 -10 -8 -38 -14 -63 -7 -25 -13 -52 -15 -60 -2 -8 -9 -35 -16
-60 -7 -25 -14 -56 -17 -69 -2 -14 -6 -28 -9 -33 -6 -9 -13 -38 -21 -80 -3
-16 -10 -28 -15 -28 -5 0 -6 -9 -3 -20 4 -11 2 -20 -4 -20 -6 0 -10 -3 -9 -7
3 -12 -66 -237 -89 -293 -3 -8 -5 -19 -4 -24 1 -4 -2 -13 -7 -20 -12 -15 -67
-169 -64 -178 1 -5 -3 -8 -9 -8 -5 0 -8 -4 -4 -9 3 -5 1 -12 -4 -15 -7 -5 -22
-55 -20 -72 0 -4 -3 -10 -8 -13 -7 -5 -35 -58 -37 -71 -3 -16 -52 -128 -63
-145 -7 -11 -13 -27 -13 -37 0 -10 -4 -18 -10 -18 -5 0 -10 -6 -10 -14 0 -8
-12 -38 -27 -68 -15 -29 -28 -59 -29 -66 -2 -8 -10 -22 -18 -31 -9 -10 -16
-21 -16 -24 0 -4 -13 -33 -29 -64 -71 -144 -103 -203 -112 -208 -5 -4 -7 -11
-4 -16 4 -5 2 -9 -3 -9 -4 0 -21 -27 -37 -60 -16 -33 -32 -60 -36 -60 -4 0 -9
-8 -13 -17 -5 -17 -23 -49 -57 -103 -105 -164 -165 -256 -171 -258 -5 -2 -8
-8 -8 -13 0 -6 -5 -15 -10 -22 -6 -7 -42 -57 -82 -112 -39 -55 -75 -101 -80
-103 -4 -2 -8 -9 -8 -14 0 -6 -7 -18 -15 -27 -47 -52 -55 -62 -55 -67 0 -6
-69 -92 -109 -136 -9 -9 -27 -31 -41 -49 -26 -32 -40 -49 -98 -113 -18 -20
-31 -36 -29 -36 4 0 -121 -132 -252 -265 -147 -150 -267 -263 -430 -402 -14
-13 -30 -23 -34 -23 -5 0 -5 -4 -2 -10 3 -5 0 -10 -9 -10 -8 0 -16 -4 -18 -8
-1 -5 -52 -48 -113 -96 -139 -111 -131 -105 -187 -145 -27 -19 -48 -38 -48
-43 0 -4 -3 -7 -7 -6 -5 2 -33 -16 -63 -38 -30 -22 -82 -58 -115 -80 -33 -21
-69 -47 -79 -57 -11 -9 -26 -17 -33 -17 -7 0 -13 -3 -13 -7 0 -10 -62 -47 -72
-45 -5 1 -8 -3 -8 -8 0 -6 -6 -10 -14 -10 -8 0 -16 -4 -18 -8 -4 -9 -208 -132
-220 -132 -4 0 -8 -4 -8 -10 0 -5 -9 -10 -19 -10 -11 0 -22 -4 -25 -9 -6 -9
-54 -35 -181 -100 -38 -20 -71 -39 -73 -43 -2 -5 -8 -8 -14 -8 -6 0 -38 -13
-72 -29 -33 -16 -68 -32 -76 -35 -8 -3 -22 -10 -30 -15 -14 -9 -109 -53 -120
-56 -8 -2 -62 -25 -95 -40 -39 -17 -78 -29 -87 -27 -5 1 -8 -2 -8 -7 0 -5 -10
-11 -23 -15 -13 -3 -41 -13 -63 -23 -21 -9 -42 -18 -46 -19 -5 -1 -10 -3 -13
-4 -3 -1 -8 -3 -12 -5 -5 -1 -15 -4 -23 -8 -26 -10 -225 -75 -238 -78 -4 0
-15 -5 -25 -11 -19 -10 -52 -19 -74 -20 -7 -1 -13 -5 -13 -10 0 -5 -4 -7 -8
-4 -4 2 -35 -4 -67 -15 -33 -11 -68 -21 -80 -24 -11 -2 -47 -12 -80 -21 -33
-9 -68 -18 -77 -20 -10 -2 -27 -6 -38 -9 -11 -3 -29 -7 -41 -10 -11 -2 -30 -7
-42 -11 -12 -4 -33 -8 -47 -10 -14 -2 -54 -10 -90 -19 -36 -8 -76 -17 -90 -20
-14 -2 -36 -7 -50 -10 -31 -7 -98 -17 -127 -19 -13 0 -23 -3 -23 -6 0 -4 -10
-6 -22 -7 -13 0 -36 -3 -53 -6 -45 -9 -152 -24 -227 -32 -25 -2 -38 0 -39 8
-1 7 -2 1847 -3 4090 -1 2721 2 4081 9 4085 5 4 453 8 995 9 542 0 992 2 1001
2 14 1 16 56 16 559 l0 557 -1111 0 c-611 -1 -1119 1 -1128 3 -17 4 -18 150
-20 2813 -3 2489 -1 2809 12 2812 8 3 22 3 30 1 8 -2 42 -6 75 -8z m7425 -6
c447 -57 826 -125 1080 -194 270 -73 573 -167 645 -200 17 -8 62 -25 100 -39
203 -72 572 -242 780 -360 446 -251 753 -466 1140 -797 251 -215 636 -615 851
-885 236 -296 468 -638 646 -950 71 -125 227 -434 268 -530 18 -44 37 -84 41
-90 4 -5 26 -57 49 -115 22 -58 47 -119 55 -136 47 -101 193 -542 241 -724 19
-74 39 -144 44 -155 5 -11 25 -94 45 -185 19 -91 39 -183 45 -205 8 -35 15
-72 45 -235 17 -96 68 -450 80 -565 36 -329 49 -590 49 -1055 1 -717 -15 -978
-99 -1548 -20 -134 -44 -285 -55 -335 -11 -51 -33 -157 -50 -236 -16 -79 -37
-169 -46 -200 -8 -31 -35 -128 -59 -216 -85 -312 -226 -713 -337 -955 -14 -30
-40 -88 -57 -128 -37 -83 -230 -464 -240 -472 -3 -3 -17 -25 -30 -50 -54 -101
-250 -412 -263 -418 -5 -2 -8 -8 -8 -13 0 -13 -176 -255 -297 -409 -140 -179
-337 -396 -558 -615 -682 -677 -1451 -1175 -2325 -1508 -282 -108 -649 -233
-820 -282 -281 -79 -656 -133 -988 -142 l-212 -6 0 2394 c0 2148 2 2401 16
2459 9 36 18 74 19 85 2 11 8 35 14 53 5 17 8 32 6 32 -3 0 0 11 5 25 5 14 12
36 14 48 2 12 16 78 30 147 14 69 28 139 30 155 3 17 8 41 11 55 8 38 18 102
30 185 3 22 9 54 13 70 4 17 7 40 6 53 -1 12 2 22 5 22 4 0 7 10 7 23 1 12 4
46 7 75 4 28 10 76 14 105 3 28 6 62 7 75 0 12 2 22 6 22 3 0 6 19 7 43 1 23
4 65 8 92 3 28 8 73 10 100 2 28 4 50 5 50 1 0 3 25 5 55 2 30 6 80 9 110 6
75 17 240 22 325 6 98 12 1098 7 1108 -3 4 -6 60 -8 125 -3 64 -7 153 -10 197
-3 44 -7 96 -8 115 -1 19 -5 40 -10 47 -4 6 -3 14 3 18 6 4 7 11 3 18 -3 6 -8
29 -9 51 -3 62 -13 176 -20 221 -6 48 -15 138 -17 182 -1 18 -4 33 -7 33 -3 0
-6 17 -7 38 -3 54 -13 131 -27 212 -3 14 -8 43 -11 65 -4 22 -8 51 -11 65 -7
45 -16 104 -19 130 -2 14 -4 25 -5 25 -2 0 -4 11 -5 25 -1 14 -5 32 -8 40 -4
8 -8 31 -11 50 -2 19 -9 60 -16 90 -6 30 -13 64 -15 75 -1 11 -3 20 -5 20 -1
0 -3 9 -5 20 -11 58 -15 82 -17 105 -2 14 -6 27 -10 30 -3 3 -9 19 -12 35 -9
48 -24 108 -32 135 -5 14 -10 1109 -11 2433 l-3 2409 87 -7 c49 -4 117 -11
153 -15z m-980 -13615 l0 -1505 -1447 0 -1446 0 23 25 c13 14 27 25 31 25 11
0 133 73 137 82 2 5 12 8 23 8 11 0 22 7 25 15 4 8 10 15 15 15 11 0 173 102
177 112 2 5 8 6 13 2 5 -3 9 -1 9 5 0 5 9 13 20 16 11 3 26 12 32 19 7 6 51
39 98 71 47 32 87 62 88 67 2 4 9 8 15 8 7 0 26 12 42 28 17 15 48 39 70 54
22 16 55 41 74 58 18 16 37 30 40 30 4 0 28 20 54 44 27 24 62 55 79 67 17 13
43 35 58 49 16 14 52 45 81 70 95 80 389 369 389 382 0 4 7 8 15 8 8 0 15 3
15 8 0 4 28 38 63 75 92 99 127 138 127 142 0 2 14 18 32 36 33 36 152 178
203 243 17 21 37 46 46 56 8 11 24 31 35 45 10 15 24 32 30 39 5 6 30 38 54
71 24 33 48 65 53 70 15 18 129 179 155 220 14 22 32 45 41 52 9 7 12 13 8 13
-9 0 53 93 66 98 4 2 5 8 1 13 -3 5 -1 9 4 9 5 0 15 14 22 30 7 17 15 30 19
30 4 0 15 17 26 37 11 21 37 64 58 95 20 31 37 60 37 63 0 4 16 30 35 59 19
29 35 58 35 65 0 6 5 11 12 11 6 0 9 3 5 6 -3 4 8 27 26 53 17 25 29 46 27 47
-5 1 42 64 48 64 1 0 2 -677 2 -1505z m0 -3669 l0 -1424 -27 -7 c-39 -11 -65
-11 -85 -2 -10 4 -18 4 -18 0 0 -9 -127 -9 -136 0 -4 4 -11 4 -17 0 -15 -9
-98 -9 -104 0 -2 4 -9 4 -16 0 -15 -9 -188 -10 -194 0 -2 4 -9 4 -16 0 -15 -9
-97 -10 -97 0 0 5 -5 5 -11 1 -16 -10 -190 -11 -196 -1 -2 4 -9 4 -16 0 -15
-9 -98 -10 -104 0 -2 4 -9 4 -16 0 -15 -9 -98 -10 -104 0 -2 4 -9 4 -16 0 -15
-9 -98 -10 -104 0 -2 4 -9 4 -16 0 -15 -9 -98 -10 -104 0 -2 4 -9 4 -15 0 -16
-9 -139 -10 -145 0 -2 4 -10 4 -16 0 -14 -9 -92 -7 -108 3 -7 4 -10 3 -6 -2 3
-5 -32 -8 -81 -6 -48 1 -93 2 -99 2 -28 0 -144 0 -155 1 -7 0 -32 -1 -56 -3
-24 -2 -46 0 -48 4 -3 5 -10 5 -16 1 -15 -9 -101 -9 -115 0 -7 4 -14 4 -17 -1
-5 -8 -69 -7 -93 2 -7 3 -13 2 -13 -2 0 -9 -123 -8 -138 1 -6 4 -13 4 -15 0
-6 -9 -94 -9 -103 0 -4 4 -11 4 -17 0 -15 -9 -98 -9 -104 0 -2 4 -9 4 -16 0
-15 -9 -107 -10 -107 0 0 5 -5 5 -11 1 -16 -10 -69 -11 -96 -2 -13 4 -23 4
-23 0 0 -4 -28 -6 -62 -4 -35 1 -69 3 -75 2 -22 0 -143 0 -155 1 -7 0 -32 -1
-56 -3 -24 -2 -46 0 -48 4 -3 5 -10 5 -16 1 -15 -9 -101 -9 -115 0 -7 4 -14 4
-17 -1 -5 -8 -69 -7 -93 2 -7 3 -13 2 -13 -2 0 -9 -127 -8 -136 1 -4 4 -11 4
-17 0 -15 -9 -98 -9 -104 0 -2 4 -9 4 -16 0 -15 -9 -98 -10 -104 0 -2 4 -9 4
-16 0 -15 -9 -107 -10 -107 0 0 5 -5 5 -11 1 -16 -10 -69 -11 -96 -2 -13 4
-23 4 -23 0 0 -9 -137 -8 -146 1 -4 4 -11 4 -17 0 -16 -9 -97 -9 -97 0 0 5 -5
5 -11 1 -16 -10 -190 -11 -196 -1 -2 4 -9 4 -16 0 -15 -9 -98 -10 -104 0 -2 4
-9 4 -16 0 -15 -9 -98 -10 -104 0 -2 4 -9 4 -16 0 -15 -9 -98 -10 -104 0 -2 4
-9 4 -16 0 -15 -9 -98 -10 -104 0 -2 4 -9 4 -15 0 -16 -9 -139 -10 -145 0 -2
4 -10 4 -16 0 -14 -9 -92 -7 -108 3 -7 4 -10 3 -6 -2 3 -5 -25 -9 -63 -9 -37
0 -66 3 -63 7 2 5 -6 4 -19 0 -27 -9 -70 -8 -87 2 -6 4 -11 4 -11 -1 0 -10
-93 -9 -109 1 -6 4 -11 4 -11 -1 0 -10 -122 -9 -138 0 -6 4 -13 4 -15 0 -6
-10 -89 -9 -104 0 -7 4 -14 4 -16 0 -6 -9 -140 -9 -154 0 -8 5 -10 2633 -2
2641 2 3 40 7 84 11 44 3 100 8 125 10 25 3 63 7 85 9 22 2 67 7 100 11 33 5
75 9 92 9 18 1 33 3 33 6 0 3 21 7 48 8 58 5 97 9 97 12 0 1 11 3 25 5 14 1
41 5 60 8 48 8 121 19 145 22 11 1 20 3 20 5 0 1 9 3 20 4 63 9 112 18 126 22
10 3 30 7 45 9 73 11 100 16 114 22 8 3 22 7 30 8 19 2 79 14 105 20 11 3 35
8 53 12 18 5 1131 7 2472 5 l2440 -2 0 -1424z m-7549 1412 c1 -7 3 -316 4
-685 1 -370 4 -675 7 -679 4 -3 2 -19 -2 -35 -5 -16 -5 -31 0 -34 4 -3 4 -20
0 -39 -4 -19 -6 -37 -3 -40 5 -4 7 -82 3 -101 -1 -5 -2 -13 -1 -17 5 -32 4
-139 -1 -144 -4 -3 -3 -16 1 -28 5 -11 5 -30 1 -41 -4 -11 -5 -24 -2 -29 5 -8
6 -126 2 -143 -1 -5 -1 -12 0 -18 5 -21 2 -176 -3 -181 -3 -3 -2 -18 3 -33 4
-16 4 -34 0 -41 -5 -7 -5 -23 0 -34 4 -12 4 -30 0 -41 -4 -11 -5 -24 -2 -29 7
-12 6 -135 -1 -142 -3 -3 -2 -16 2 -28 5 -11 5 -30 1 -41 -4 -11 -5 -24 -2
-29 5 -8 6 -126 2 -143 -1 -5 -1 -12 0 -18 1 -5 2 -32 1 -60 -2 -90 -2 -113 0
-121 1 -5 -2 -19 -6 -31 l-7 -23 -2209 0 -2209 0 0 1415 c0 1340 1 1415 18
1417 9 1 510 2 1112 4 602 1 1103 3 1113 3 15 1 17 12 17 79 0 42 3 87 6 100
l6 22 1074 0 c852 0 1074 -3 1075 -12z"/>
</g>
</svg>
